<svg xmlns="http://www.w3.org/2000/svg" width="1600" height="1000" viewBox="0 0 1600 1000">
  <defs>
    <linearGradient id="g" x1="0" x2="1">
      <stop offset="0" stop-color="#0F1113"/>
      <stop offset="0.55" stop-color="#2D2B27"/>
      <stop offset="1" stop-color="#CBA968"/>
    </linearGradient>
    <radialGradient id="sun" cx="70%" cy="42%" r="30%">
      <stop offset="0" stop-color="#F7F4EE" stop-opacity=".85"/>
      <stop offset=".35" stop-color="#CBA968" stop-opacity=".45"/>
      <stop offset="1" stop-color="#0F1113" stop-opacity="0"/>
    </radialGradient>
  </defs>
  <rect width="1600" height="1000" fill="url(#g)"/>
  <circle cx="1120" cy="420" r="300" fill="url(#sun)"/>
  <path d="M0 700 C260 520 430 610 610 480 C820 330 950 580 1160 380 C1320 230 1460 340 1600 240 L1600 1000 L0 1000Z" fill="#101417" opacity=".82"/>
  <path d="M0 760 C300 620 480 720 720 600 C960 480 1060 740 1320 550 C1450 455 1540 480 1600 440 L1600 1000 L0 1000Z" fill="#161A1B" opacity=".78"/>
  <path d="M880 680 C1030 640 1130 640 1290 690 C1150 725 1010 725 880 680Z" fill="#CBA968" opacity=".22"/>
  <rect x="1140" y="310" width="320" height="260" rx="8" fill="#F7F4EE" opacity=".08" stroke="#CBA968" stroke-opacity=".38"/>
  <line x1="1220" y1="310" x2="1220" y2="570" stroke="#CBA968" stroke-opacity=".22"/>
  <line x1="1320" y1="310" x2="1320" y2="570" stroke="#CBA968" stroke-opacity=".22"/>
</svg>
